<?xml version="1.0" encoding="utf-8"?>
<!-- Generator: Adobe Illustrator 27.1.1, SVG Export Plug-In . SVG Version: 6.00 Build 0)  -->
<svg version="1.1" id="Layer_1" xmlns="http://www.w3.org/2000/svg" xmlns:xlink="http://www.w3.org/1999/xlink" x="0px" y="0px"
	 viewBox="0 0 141.6 122.8" style="enable-background:new 0 0 141.6 122.8;" xml:space="preserve">
<style type="text/css">
	.st0{fill:#37EC92;}
</style>
<path class="st0" d="M141.6,50.9L127,8.3l-8.5,2.9l11.4,33.4L94,54.4c-0.8-3-2.1-5.8-3.7-8.4l23.8-8.4L103.9,0l-8.7,2.4l8.1,29.5
	l-14,4.9l0,0c0-10.2-8.3-18.5-18.5-18.5s-18.5,8.3-18.5,18.5c0,0,0,0,0,0.1L38.2,32l8.1-29.5L37.7,0L27.4,37.6L51.3,46
	c-1.6,2.5-2.8,5.4-3.7,8.4l-36-9.7L23,11.3l-8.5-2.9L0,50.9l39.1,10.5L0,71.9l14.6,42.6l8.5-2.9L11.6,78.1l35-9.4
	c0.4,3.1,1.3,6.1,2.4,8.9l-21.7,7.6l10.3,37.6l8.7-2.4l-8.1-29.5L54,85.4c4.4,5,10.3,8.1,16.8,8.1s12.4-3.1,16.8-8.1l15.7,5.5
	l-8.1,29.5l8.7,2.4l10.3-37.6l-21.7-7.6c1.2-2.7,2-5.7,2.5-8.9l34.9,9.4l-11.4,33.4l8.5,2.9l14.6-42.6l-39.1-10.5L141.6,50.9z
	 M70.8,84.5c-8.5,0-15.5-9.2-15.5-20.6c0-6.6,2.4-12.9,6.5-16.8l2.6-2.5l-1.8-3.1c-0.9-1.4-1.3-3.1-1.3-4.8c0-5.2,4.3-9.5,9.5-9.5
	s9.5,4.3,9.5,9.5c0,1.7-0.5,3.4-1.3,4.8l-1.8,3.1l2.6,2.5c4.1,3.9,6.5,10.2,6.5,16.8C86.3,75.3,79.4,84.5,70.8,84.5z"/>
</svg>
